<svg width="37" height="37" viewBox="0 0 37 37" fill="none" xmlns="http://www.w3.org/2000/svg">
<g id="pinx-icon">
	<path fill="#EDED0C" d="M26.3,37h-7.8h-7.8c-2.9,0-5.6-1.2-7.5-3.1S0,29.3,0,26.3v-7.8v-7.8c0-2.9,1.2-5.6,3.1-7.5S7.7,0,10.7,0h7.8
	h7.8c2.9,0,5.6,1.2,7.5,3.1S37,7.7,37,10.7v7.8v7.8c0,2.9-1.2,5.6-3.1,7.5S29.3,37,26.3,37z"/>
	<path fill="#252624" d="M17.4,29c0-0.2-0.1-0.3-0.3-0.4s-0.3-0.1-0.5-0.1c-0.3,0.1-0.6,0.2-0.9,0.2c-0.3,0-0.6,0.1-0.9,0.1
		c-0.4,0-0.8-0.1-1.1-0.2c-0.3-0.1-0.6-0.3-0.7-0.5c-0.2-0.2-0.3-0.5-0.4-0.8s-0.1-0.8-0.1-1.2v-4.4v-4.4v-4.1V9.2
		c0-0.3-0.1-0.6-0.3-0.8c-0.2-0.2-0.5-0.3-0.8-0.3h-1h-1c-0.3,0-0.5,0.1-0.7,0.3C8.4,8.5,8.3,8.8,8.2,9l-0.3,1.8l-0.3,1.8
		c-0.1,0.3-0.2,0.5-0.4,0.7c-0.2,0.2-0.4,0.3-0.7,0.3H5.7H5c-0.3,0-0.6,0.1-0.8,0.3c-0.2,0.2-0.3,0.5-0.3,0.8v0.8v0.8
		c0,0.3,0.1,0.6,0.3,0.8c0.2,0.2,0.5,0.3,0.8,0.3h0.4h0.4c0.3,0,0.6,0.1,0.8,0.3S7,18.2,7,18.5v4.2v4.2c0,2,0.5,3.5,1.6,4.5
		c1,1,2.6,1.5,4.7,1.5c0.7,0,1.4-0.1,2.1-0.2c0.7-0.1,1.4-0.3,2.2-0.6c0.1-0.1,0.3-0.2,0.3-0.3s0.1-0.3,0.1-0.4l-0.3-1.2L17.4,29z"
		/>
	<path fill="#252624" d="M14.9,17.4h0.9h0.9c0.3,0,0.6-0.1,0.7-0.3c0.2-0.2,0.3-0.5,0.3-0.7v-0.9v-0.9c0-0.3-0.1-0.6-0.3-0.7
		c-0.2-0.2-0.5-0.3-0.7-0.3h-0.9h-0.9c-0.3,0-0.6,0.1-0.7,0.3c-0.2,0.2-0.3,0.5-0.3,0.7v0.9v0.9c0,0.3,0.1,0.6,0.3,0.7
		C14.3,17.3,14.6,17.4,14.9,17.4z"/>
	<path fill="#252624" d="M21.7,17.4c0.3,0,0.6-0.1,0.7-0.3c0.2-0.2,0.3-0.5,0.3-0.7v-0.9v-0.9c0-0.3-0.1-0.6-0.3-0.7
		c-0.2-0.2-0.5-0.3-0.7-0.3h-0.9H20c-0.3,0-0.6,0.1-0.7,0.3c-0.2,0.2-0.3,0.5-0.3,0.7v0.9v0.9c0,0.3,0.1,0.6,0.3,0.7
		c0.2,0.2,0.5,0.3,0.7,0.3h0.9H21.7z"/>
	<path fill="#252624" d="M32,19.6h-0.4h-0.4c-0.3,0-0.6-0.1-0.8-0.3S30,18.8,30,18.5v-4.2v-4.2c0-2-0.5-3.5-1.6-4.5
		c-1-1-2.6-1.5-4.7-1.5c-0.7,0-1.4,0.1-2.1,0.2c-0.7,0.1-1.4,0.3-2.2,0.6c-0.1,0.1-0.3,0.2-0.3,0.3c-0.1,0.1-0.1,0.3-0.1,0.4
		l0.3,1.2L19.6,8c0,0.2,0.1,0.3,0.3,0.4s0.3,0.1,0.5,0.1c0.3-0.1,0.6-0.2,0.9-0.2c0.3,0,0.6-0.1,0.9-0.1c0.4,0,0.8,0.1,1.1,0.2
		c0.3,0.1,0.6,0.3,0.7,0.5c0.2,0.2,0.3,0.5,0.4,0.8c0.1,0.3,0.1,0.8,0.1,1.2v4.4v4.4v4.1v4.1c0,0.3,0.1,0.6,0.3,0.8s0.5,0.3,0.8,0.3
		h1h1c0.3,0,0.5-0.1,0.7-0.3s0.3-0.4,0.4-0.7l0.3-1.8l0.3-1.8c0.1-0.3,0.2-0.5,0.4-0.7c0.2-0.2,0.4-0.3,0.7-0.3h0.7H32
		c0.3,0,0.6-0.1,0.8-0.3c0.2-0.2,0.3-0.5,0.3-0.8v-0.8v-0.8c0-0.3-0.1-0.6-0.3-0.8C32.6,19.7,32.3,19.6,32,19.6z"/>
	<path fill="#252624" d="M22.1,19.6h-0.9h-0.9c-0.3,0-0.6,0.1-0.7,0.3c-0.2,0.2-0.3,0.5-0.3,0.7v0.9v0.9c0,0.3,0.1,0.6,0.3,0.7
		s0.5,0.3,0.7,0.3h0.9h0.9c0.3,0,0.6-0.1,0.7-0.3c0.2-0.2,0.3-0.5,0.3-0.7v-0.9v-0.9c0-0.3-0.1-0.6-0.3-0.7
		C22.7,19.7,22.4,19.6,22.1,19.6z"/>
	<path fill="#252624" d="M17,19.6h-0.9h-0.9c-0.3,0-0.6,0.1-0.7,0.3c-0.2,0.2-0.3,0.5-0.3,0.7v0.9v0.9c0,0.3,0.1,0.6,0.3,0.7
		c0.2,0.2,0.5,0.3,0.7,0.3h0.9H17c0.3,0,0.6-0.1,0.7-0.3c0.2-0.2,0.3-0.5,0.3-0.7v-0.9v-0.9c0-0.3-0.1-0.6-0.3-0.7
		C17.5,19.7,17.3,19.6,17,19.6z"/>
</g>
</svg>