<svg width="187" height="37" viewBox="0 0 187 37" fill="none" xmlns="http://www.w3.org/2000/svg">
<g id="pinx-icon">
	<path fill="#EDED0C" d="M26.3,37h-7.8h-7.8c-2.9,0-5.6-1.2-7.5-3.1S0,29.3,0,26.3v-7.8v-7.8c0-2.9,1.2-5.6,3.1-7.5S7.7,0,10.7,0h7.8
	h7.8c2.9,0,5.6,1.2,7.5,3.1S37,7.7,37,10.7v7.8v7.8c0,2.9-1.2,5.6-3.1,7.5S29.3,37,26.3,37z"/>
	<path fill="#252624" d="M17.4,29c0-0.2-0.1-0.3-0.3-0.4s-0.3-0.1-0.5-0.1c-0.3,0.1-0.6,0.2-0.9,0.2c-0.3,0-0.6,0.1-0.9,0.1
		c-0.4,0-0.8-0.1-1.1-0.2c-0.3-0.1-0.6-0.3-0.7-0.5c-0.2-0.2-0.3-0.5-0.4-0.8s-0.1-0.8-0.1-1.2v-4.4v-4.4v-4.1V9.2
		c0-0.3-0.1-0.6-0.3-0.8c-0.2-0.2-0.5-0.3-0.8-0.3h-1h-1c-0.3,0-0.5,0.1-0.7,0.3C8.4,8.5,8.3,8.8,8.2,9l-0.3,1.8l-0.3,1.8
		c-0.1,0.3-0.2,0.5-0.4,0.7c-0.2,0.2-0.4,0.3-0.7,0.3H5.7H5c-0.3,0-0.6,0.1-0.8,0.3c-0.2,0.2-0.3,0.5-0.3,0.8v0.8v0.8
		c0,0.3,0.1,0.6,0.3,0.8c0.2,0.2,0.5,0.3,0.8,0.3h0.4h0.4c0.3,0,0.6,0.1,0.8,0.3S7,18.2,7,18.5v4.2v4.2c0,2,0.5,3.5,1.6,4.5
		c1,1,2.6,1.5,4.7,1.5c0.7,0,1.4-0.1,2.1-0.2c0.7-0.1,1.4-0.3,2.2-0.6c0.1-0.1,0.3-0.2,0.3-0.3s0.1-0.3,0.1-0.4l-0.3-1.2L17.4,29z"
		/>
	<path fill="#252624" d="M14.9,17.4h0.9h0.9c0.3,0,0.6-0.1,0.7-0.3c0.2-0.2,0.3-0.5,0.3-0.7v-0.9v-0.9c0-0.3-0.1-0.6-0.3-0.7
		c-0.2-0.2-0.5-0.3-0.7-0.3h-0.9h-0.9c-0.3,0-0.6,0.1-0.7,0.3c-0.2,0.2-0.3,0.5-0.3,0.7v0.9v0.9c0,0.3,0.1,0.6,0.3,0.7
		C14.3,17.3,14.6,17.4,14.9,17.4z"/>
	<path fill="#252624" d="M21.7,17.4c0.3,0,0.6-0.1,0.7-0.3c0.2-0.2,0.3-0.5,0.3-0.7v-0.9v-0.9c0-0.3-0.1-0.6-0.3-0.7
		c-0.2-0.2-0.5-0.3-0.7-0.3h-0.9H20c-0.3,0-0.6,0.1-0.7,0.3c-0.2,0.2-0.3,0.5-0.3,0.7v0.9v0.9c0,0.3,0.1,0.6,0.3,0.7
		c0.2,0.2,0.5,0.3,0.7,0.3h0.9H21.7z"/>
	<path fill="#252624" d="M32,19.6h-0.4h-0.4c-0.3,0-0.6-0.1-0.8-0.3S30,18.8,30,18.5v-4.2v-4.2c0-2-0.5-3.5-1.6-4.5
		c-1-1-2.6-1.5-4.7-1.5c-0.7,0-1.4,0.1-2.1,0.2c-0.7,0.1-1.4,0.3-2.2,0.6c-0.1,0.1-0.3,0.2-0.3,0.3c-0.1,0.1-0.1,0.3-0.1,0.4
		l0.3,1.2L19.6,8c0,0.2,0.1,0.3,0.3,0.4s0.3,0.1,0.5,0.1c0.3-0.1,0.6-0.2,0.9-0.2c0.3,0,0.6-0.1,0.9-0.1c0.4,0,0.8,0.1,1.1,0.2
		c0.3,0.1,0.6,0.3,0.7,0.5c0.2,0.2,0.3,0.5,0.4,0.8c0.1,0.3,0.1,0.8,0.1,1.2v4.4v4.4v4.1v4.1c0,0.3,0.1,0.6,0.3,0.8s0.5,0.3,0.8,0.3
		h1h1c0.3,0,0.5-0.1,0.7-0.3s0.3-0.4,0.4-0.7l0.3-1.8l0.3-1.8c0.1-0.3,0.2-0.5,0.4-0.7c0.2-0.2,0.4-0.3,0.7-0.3h0.7H32
		c0.3,0,0.6-0.1,0.8-0.3c0.2-0.2,0.3-0.5,0.3-0.8v-0.8v-0.8c0-0.3-0.1-0.6-0.3-0.8C32.6,19.7,32.3,19.6,32,19.6z"/>
	<path fill="#252624" d="M22.1,19.6h-0.9h-0.9c-0.3,0-0.6,0.1-0.7,0.3c-0.2,0.2-0.3,0.5-0.3,0.7v0.9v0.9c0,0.3,0.1,0.6,0.3,0.7
		s0.5,0.3,0.7,0.3h0.9h0.9c0.3,0,0.6-0.1,0.7-0.3c0.2-0.2,0.3-0.5,0.3-0.7v-0.9v-0.9c0-0.3-0.1-0.6-0.3-0.7
		C22.7,19.7,22.4,19.6,22.1,19.6z"/>
	<path fill="#252624" d="M17,19.6h-0.9h-0.9c-0.3,0-0.6,0.1-0.7,0.3c-0.2,0.2-0.3,0.5-0.3,0.7v0.9v0.9c0,0.3,0.1,0.6,0.3,0.7
		c0.2,0.2,0.5,0.3,0.7,0.3h0.9H17c0.3,0,0.6-0.1,0.7-0.3c0.2-0.2,0.3-0.5,0.3-0.7v-0.9v-0.9c0-0.3-0.1-0.6-0.3-0.7
		C17.5,19.7,17.3,19.6,17,19.6z"/>

		<path fill="#252624" d="M48.7,25.6c-2.4,0-3.7-1.2-3.7-3.5v-5.5h-1.8v-2.2h2l0.6-3.2h2.3v3.2h3v2.2h-3v5.1c0,0.6,0.1,1,0.3,1.2
			c0.2,0.2,0.6,0.4,1.1,0.4c0.4,0,0.9-0.1,1.4-0.3l0.5,2C50.5,25.4,49.6,25.6,48.7,25.6z"/>
		<path fill="#252624" d="M59.2,14.1c0.3,0,0.5,0,0.7,0c0.2,0,0.4,0.1,0.7,0.2l-0.4,2.8c-0.6-0.2-1.1-0.3-1.6-0.3
			c-0.5,0-0.9,0.1-1.3,0.3c-0.3,0.2-0.6,0.5-0.9,0.8v7.5h-3.2V14.3h2.5l0.4,1.5C57,14.7,57.9,14.1,59.2,14.1z"/>
		<path fill="#252624" d="M62.2,9.9h3.2v2.9h-3.2V9.9z M62.2,14.4h3.2v11h-3.2V14.4z"/>
		<path fill="#252624" d="M78.2,15.6c0.9,0.9,1.3,2.3,1.3,4c0,1.2-0.2,2.3-0.7,3.2c-0.5,0.9-1.2,1.6-2.1,2c-0.9,0.5-2,0.7-3.2,0.7
			c-0.6,0-1.2-0.1-1.9-0.2v4.9h-3.2V14.3h2.4l0.5,1.3c0.5-0.5,1-0.9,1.5-1.1c0.5-0.2,1.1-0.3,1.8-0.3C76.1,14.2,77.3,14.7,78.2,15.6
			z M75.5,22.5c0.5-0.6,0.8-1.5,0.8-2.7c0-2.2-0.8-3.3-2.3-3.3c-0.6,0-1,0.2-1.4,0.5c-0.4,0.3-0.7,0.7-0.9,1.3v5
			c0.4,0.1,0.7,0.2,0.9,0.2c0.2,0,0.5,0,0.8,0C74.3,23.4,75,23.1,75.5,22.5z"/>
		<path fill="#252624" d="M81.7,9.5h3.2v15.9h-3.2V9.5z"/>
		<path fill="#252624" d="M96.9,15.6c1,1,1.5,2.4,1.5,4.3c0,1.9-0.5,3.3-1.5,4.3c-1,1-2.4,1.5-4.2,1.5c-1.8,0-3.2-0.5-4.2-1.5
			c-1-1-1.5-2.4-1.5-4.3c0-1.9,0.5-3.3,1.5-4.3s2.4-1.5,4.2-1.5C94.6,14.1,96,14.6,96.9,15.6z M90.3,19.8c0,2.3,0.8,3.4,2.4,3.4
			c1.6,0,2.5-1.1,2.5-3.4s-0.8-3.4-2.5-3.4C91.1,16.4,90.3,17.6,90.3,19.8z"/>
		<path fill="#252624" d="M104.7,25.6c-2.4,0-3.7-1.2-3.7-3.5v-5.5h-1.8v-2.2h2l0.6-3.2h2.3v3.2h3v2.2h-3v5.1c0,0.6,0.1,1,0.3,1.2
			c0.2,0.2,0.6,0.4,1.1,0.4c0.4,0,0.9-0.1,1.4-0.3l0.5,2C106.5,25.4,105.6,25.6,104.7,25.6z"/>
		<path fill="#252624" d="M115.2,14.1c0.3,0,0.5,0,0.7,0c0.2,0,0.4,0.1,0.7,0.2l-0.4,2.8c-0.6-0.2-1.1-0.3-1.6-0.3
			c-0.5,0-0.9,0.1-1.3,0.3c-0.3,0.2-0.6,0.5-0.9,0.8v7.5h-3.2V14.3h2.5l0.4,1.5C113,14.7,114,14.1,115.2,14.1z"/>
		<path fill="#252624" d="M118.2,9.9h3.2v2.9h-3.2V9.9z M118.2,14.4h3.2v11h-3.2V14.4z"/>
		<path fill="#252624" d="M134.2,15.6c0.9,0.9,1.3,2.3,1.3,4c0,1.2-0.2,2.3-0.7,3.2c-0.5,0.9-1.2,1.6-2.1,2c-0.9,0.5-2,0.7-3.2,0.7
			c-0.6,0-1.2-0.1-1.9-0.2v4.9h-3.2V14.3h2.4l0.5,1.3c0.5-0.5,1-0.9,1.5-1.1c0.5-0.2,1.1-0.3,1.8-0.3
			C132.2,14.2,133.4,14.7,134.2,15.6z M131.5,22.5c0.5-0.6,0.8-1.5,0.8-2.7c0-2.2-0.8-3.3-2.3-3.3c-0.6,0-1,0.2-1.4,0.5
			c-0.4,0.3-0.7,0.7-0.9,1.3v5c0.4,0.1,0.7,0.2,0.9,0.2c0.2,0,0.5,0,0.8,0C130.3,23.4,131,23.1,131.5,22.5z"/>
</g>
</svg>
